<svg width="136" height="161" viewBox="0 0 136 161" fill="none" xmlns="http://www.w3.org/2000/svg">
<path d="M57.856 142.219C57.6185 138.27 60.6589 134.797 67.8243 134.114C74.9907 134.797 78.0312 138.27 77.7926 142.219C81.302 116.39 116.494 103.263 119.145 76.3705C104.201 55.2756 86.5277 40.7851 84.1555 24.178C80.8189 23.3452 67.8243 24.457 67.8243 24.457C67.8243 24.457 54.8298 23.3452 51.4942 24.178C49.1219 40.7851 31.4485 55.2756 16.5051 76.3705C19.1544 103.263 54.3476 116.39 57.856 142.219Z" fill="url(#paint0_linear_982_4543)"/>
<path d="M21.7852 69.0799C36.9491 49.423 49.1218 40.7851 51.4941 24.178C51.4941 24.178 16.6788 -2.09009 0 0.133618C0 0.133618 26.2782 36.5057 16.5059 76.3811C18.1333 73.751 20.0558 71.521 21.7852 69.0799Z" fill="url(#paint1_linear_982_4543)"/>
<path d="M58.1704 154.253C58.1704 154.253 60.7358 159.305 67.8243 160.625C74.9129 159.305 77.4783 154.253 77.4783 154.253C74.3782 155.46 71.0164 155.956 67.8243 155.588C64.6333 155.956 61.2715 155.46 58.1704 154.253Z" fill="url(#paint2_linear_982_4543)"/>
<path d="M34.5534 53.717C33.3789 25.4951 0 0.133667 0 0.133667C0 0.133667 21.5547 29.4778 16.5059 76.3811C18.4154 74.1346 20.6174 70.9593 22.3468 68.5183C29.0863 60.6555 28.8668 60.5862 34.5534 53.717Z" fill="#F5DBCF"/>
<path d="M77.7927 142.219C81.3021 116.39 116.494 103.263 119.145 76.3705C120.873 78.8115 122.566 81.3405 124.193 83.9705C128.669 91.2047 132.659 99.209 135.579 108.264C102.539 117.129 102.108 123.066 87.0928 146.617C83.1306 152.831 75.0413 156.421 67.8244 155.588C60.6084 156.421 52.5192 152.831 48.5569 146.617C33.5408 123.066 33.1113 117.129 0.0699463 108.264C2.99109 99.209 6.97962 91.2047 11.4564 83.9705C13.0837 81.3405 14.7757 78.8115 16.5052 76.3705C19.1544 103.263 54.3477 116.39 57.8561 142.219C58.0987 146.224 61.7152 150.722 67.8244 153.295C73.9345 150.722 77.5511 146.224 77.7927 142.219Z" fill="url(#paint3_linear_982_4543)"/>
<path d="M67.8222 134.11C74.9886 134.797 78.0311 138.264 77.7885 142.217C77.556 146.229 73.9374 150.717 67.8222 153.295C61.7171 150.717 58.0985 146.229 57.8559 142.217C57.6133 138.264 60.6558 134.797 67.8222 134.11Z" fill="#231916"/>
<path d="M110.522 65.1486C99.2898 49.9847 86.5278 40.7851 84.1555 24.178C84.1555 24.178 118.971 -2.09009 135.649 0.133618C135.649 0.133618 112.009 34.2697 118.941 76.1183C117.314 73.4883 112.251 67.5896 110.522 65.1486Z" fill="url(#paint4_linear_982_4543)"/>
<path d="M101.093 53.717C102.267 25.4951 135.646 0.133667 135.646 0.133667C135.646 0.133667 114.085 29.4576 119.134 76.3609C117.507 73.7309 114.498 70.9594 112.769 68.5183C106.591 60.6556 106.779 60.5862 101.093 53.717Z" fill="#F5DBCF"/>
<path d="M66.3366 135.353C59.6756 136.758 57.6338 140.711 67.8224 140.518C77.9908 140.711 75.9794 136.768 69.3588 135.363C68.0044 135.08 67.6809 135.07 66.3366 135.353Z" fill="#F5F5F5"/>
<path d="M59.0275 114.739C59.9721 109.812 59.7076 104.582 57.7429 99.9585C55.7403 95.3348 51.9619 91.3934 47.2012 89.8016C42.4404 88.2099 36.8106 89.1952 33.1833 92.6819C35.1103 91.9239 37.4529 91.6966 39.4933 91.8481C39.9467 95.3348 41.4958 98.632 44.3674 100.603C47.2767 102.573 51.0551 103.218 54.4179 102.308C56.9494 105.113 59.1031 110.987 59.0275 114.739Z" fill="#231916"/>
<ellipse cx="3.09781" cy="1.5489" rx="3.09781" ry="1.5489" transform="matrix(0.777143 0.629324 0.629324 -0.777143 44.0259 95.2576)" fill="#F5F5F5"/>
<path d="M76.3749 114.777C75.4303 109.85 75.6948 104.62 77.6595 99.9966C79.6621 95.3729 83.4405 91.4315 88.2012 89.8397C92.962 88.248 98.5918 89.2334 102.219 92.72C100.292 91.9621 97.9495 91.7347 95.9091 91.8863C95.4557 95.3729 93.9066 98.6701 91.035 100.641C88.1257 102.612 84.3473 103.256 80.9845 102.346C78.453 105.151 76.2993 111.025 76.3749 114.777Z" fill="#231916"/>
<ellipse cx="87.6794" cy="96.0607" rx="3.09781" ry="1.5489" transform="rotate(-39.0002 87.6794 96.0607)" fill="#F5F5F5"/>
<defs>
<linearGradient id="paint0_linear_982_4543" x1="67.8274" y1="142.43" x2="75.7731" y2="66.2947" gradientUnits="userSpaceOnUse">
<stop stop-color="#B03202"/>
<stop offset="1" stop-color="#FF7220"/>
</linearGradient>
<linearGradient id="paint1_linear_982_4543" x1="25.7483" y1="84.1208" x2="25.7483" y2="14.388" gradientUnits="userSpaceOnUse">
<stop stop-color="#B03202"/>
<stop offset="1" stop-color="#FF7220"/>
</linearGradient>
<linearGradient id="paint2_linear_982_4543" x1="67.8248" y1="160.636" x2="67.8248" y2="155.345" gradientUnits="userSpaceOnUse">
<stop stop-color="#B03202"/>
<stop offset="1" stop-color="#FF7220"/>
</linearGradient>
<linearGradient id="paint3_linear_982_4543" x1="4.00012" y1="178.5" x2="14.1397" y2="55.3649" gradientUnits="userSpaceOnUse">
<stop stop-color="#999999"/>
<stop offset="1" stop-color="#FEFEFE"/>
</linearGradient>
<linearGradient id="paint4_linear_982_4543" x1="109.903" y1="76.2545" x2="109.903" y2="13.0425" gradientUnits="userSpaceOnUse">
<stop stop-color="#B03202"/>
<stop offset="1" stop-color="#FF7220"/>
</linearGradient>
</defs>
</svg>
